<svg xmlns="http://www.w3.org/2000/svg" width="100" height="100"><path fill="#4e5fd8" d="M82 31v38c0 2.01-.46 3.92-1.27 5.62a12.921 12.921 0 0 1-5.15 5.58C73.65 81.35 71.4 82 69 82H31c-1.47 0-2.89-.25-4.21-.7h-.01a12.87 12.87 0 0 1-6.05-4.34C19.02 74.76 18 72 18 69V31c0-.59.04-1.17.12-1.74.1-.77.27-1.52.51-2.24C20.3 21.79 25.21 18 31 18h38c.43 0 .85.02 1.26.06h.03c.77.08 1.51.22 2.23.43 4.7 1.32 8.33 5.21 9.24 10.07.09.45.15.91.19 1.38.04.35.05.7.05 1.06z"/><path fill="#7550cc" d="M81.76 28.56c-.91-4.86-4.54-8.75-9.24-10.07-.74-.16-1.48-.3-2.23-.43h-.03c-.13-.023-.262-.038-.391-.06H46.1a70.343 70.343 0 0 0-27.98 11.26c-.08.57-.12 1.15-.12 1.74v38c0 3 1.02 5.76 2.73 7.96a12.87 12.87 0 0 0 6.05 4.34h.01c1.32.45 2.74.7 4.21.7h38c2.4 0 4.65-.65 6.58-1.8 2.23-1.29 4.03-3.25 5.15-5.58.81-1.7 1.27-3.61 1.27-5.62V31c0-.36-.01-.71-.05-1.06-.04-.47-.1-.93-.19-1.38z"/><path fill="#9c32c8" d="M82 31v38c0 2.01-.46 3.92-1.27 5.62a12.921 12.921 0 0 1-5.15 5.58C73.65 81.35 71.4 82 69 82H31c-1.47 0-2.89-.25-4.21-.7h-.01a12.87 12.87 0 0 1-6.05-4.34C19.02 74.76 18 72 18 69V38.03C28.95 29.25 42.86 24 58 24c8.4 0 16.42 1.62 23.76 4.56.09.45.15.91.19 1.38.04.35.05.7.05 1.06z"/><path fill="#d515a3" d="M82 36.29V69c0 2.01-.46 3.92-1.27 5.62a12.921 12.921 0 0 1-5.15 5.58C73.65 81.35 71.4 82 69 82H31c-1.47 0-2.89-.25-4.21-.7h-.01a12.87 12.87 0 0 1-6.05-4.34C19.02 74.76 18 72 18 69V47.41C28.28 37.26 42.41 31 58 31c8.57 0 16.71 1.89 24 5.29z"/><path fill="#ec007a" d="M82 44.14V69c0 2.01-.46 3.92-1.27 5.62a12.921 12.921 0 0 1-5.15 5.58C73.65 81.35 71.4 82 69 82H31c-1.47 0-2.89-.25-4.21-.7h-.01a12.87 12.87 0 0 1-6.05-4.34C19.02 74.76 18 72 18 69V58.01C27.12 45.86 41.64 38 58 38c8.69 0 16.87 2.22 24 6.14z"/><path fill="#ff492e" d="M82 66.07V69c0 3-1.02 5.76-2.73 7.96a12.87 12.87 0 0 1-6.05 4.34h-.01c-1.32.45-2.74.7-4.21.7H31c-2.4 0-4.65-.65-6.58-1.8a12.921 12.921 0 0 1-5.15-5.58C18.46 72.92 18 71.01 18 69V54.54A42.77 42.77 0 0 1 45 45c15.74 0 29.5 8.45 37 21.07z"/><path fill="#ff7a02" d="M79.27 76.96a12.87 12.87 0 0 1-6.05 4.34h-.01c-1.32.45-2.74.7-4.21.7H31c-2.4 0-4.65-.65-6.58-1.8a12.921 12.921 0 0 1-5.15-5.58C18.46 72.92 18 71.01 18 69v-4.81C24.6 56.72 34.25 52 45 52c16.03 0 29.61 10.48 34.27 24.96z"/><path fill="#ffa823" d="M73.21 81.3c-1.32.45-2.74.7-4.21.7H31c-2.4 0-4.65-.65-6.58-1.8a12.921 12.921 0 0 1-5.15-5.58C24.1 65.34 33.81 59 45 59c13.71 0 25.2 9.51 28.21 22.3z"/><path fill="#ffca58" d="M66.17 82H31c-2.4 0-4.65-.65-6.58-1.8C27.57 71.9 35.6 66 45 66c10.07 0 18.56 6.77 21.17 16z"/><path fill="#ffdb73" d="M58.75 82h-27.5c2.32-5.3 7.6-9 13.75-9s11.43 3.7 13.75 9z"/><path fill="#fff" d="M60 26.5H40c-7.444 0-13.5 6.056-13.5 13.5v20c0 7.444 6.056 13.5 13.5 13.5h20c7.444 0 13.5-6.056 13.5-13.5V40c0-7.444-6.056-13.5-13.5-13.5zM69.5 60c0 5.238-4.262 9.5-9.5 9.5H40c-5.238 0-9.5-4.262-9.5-9.5V40c0-5.238 4.262-9.5 9.5-9.5h20c5.238 0 9.5 4.262 9.5 9.5v20zM50 61.5c-6.341 0-11.5-5.159-11.5-11.5S43.659 38.5 50 38.5 61.5 43.659 61.5 50 56.341 61.5 50 61.5zm0-19c-4.136 0-7.5 3.365-7.5 7.5s3.364 7.5 7.5 7.5 7.5-3.365 7.5-7.5-3.364-7.5-7.5-7.5zm15.5-5a3 3 0 1 1-6 0 3 3 0 0 1 6 0z"/><path fill="#1f212b" d="M60 74H40c-7.72 0-14-6.28-14-14V40c0-7.72 6.28-14 14-14h20c7.72 0 14 6.28 14 14v20c0 7.72-6.28 14-14 14zM40 27c-7.168 0-13 5.832-13 13v20c0 7.168 5.832 13 13 13h20c7.168 0 13-5.832 13-13V40c0-7.168-5.832-13-13-13H40zm20 43H40c-5.514 0-10-4.486-10-10V40c0-5.514 4.486-10 10-10h20c5.514 0 10 4.486 10 10v20c0 5.514-4.486 10-10 10zM40 31c-4.963 0-9 4.037-9 9v20c0 4.963 4.037 9 9 9h20c4.963 0 9-4.037 9-9V40c0-4.963-4.037-9-9-9H40zm10 31c-6.617 0-12-5.383-12-12s5.383-12 12-12 12 5.383 12 12-5.383 12-12 12zm0-23c-6.065 0-11 4.935-11 11s4.935 11 11 11 11-4.935 11-11-4.935-11-11-11zm0 19c-4.411 0-8-3.589-8-8s3.589-8 8-8 8 3.589 8 8-3.589 8-8 8zm0-15c-3.859 0-7 3.141-7 7s3.141 7 7 7 7-3.141 7-7-3.141-7-7-7zm12.5-2c-1.93 0-3.5-1.57-3.5-3.5s1.57-3.5 3.5-3.5 3.5 1.57 3.5 3.5-1.57 3.5-3.5 3.5zm0-6c-1.379 0-2.5 1.121-2.5 2.5s1.121 2.5 2.5 2.5 2.5-1.121 2.5-2.5-1.121-2.5-2.5-2.5zM69 83H31c-7.72 0-14-6.28-14-14V31c0-7.72 6.28-14 14-14h38c7.72 0 14 6.28 14 14v38c0 7.72-6.28 14-14 14zM31 19c-6.617 0-12 5.383-12 12v38c0 6.617 5.383 12 12 12h38c6.617 0 12-5.383 12-12V31c0-6.617-5.383-12-12-12H31z"/></svg>