<svg xmlns="http://www.w3.org/2000/svg" width="100" height="100"><path fill="#78a1d1" d="M69.307 81.654h-39c-6.6 0-12-5.4-12-12v-39c0-6.6 5.4-12 12-12h39c6.6 0 12 5.4 12 12v39c0 6.6-5.4 12-12 12z"/><path fill="#1f212b" d="M69.307 82.654h-39c-7.168 0-13-5.832-13-13v-39c0-7.168 5.832-13 13-13h39c7.168 0 13 5.832 13 13v39c0 7.168-5.831 13-13 13zm-39-63c-6.065 0-11 4.935-11 11v39c0 6.065 4.935 11 11 11h39c6.065 0 11-4.935 11-11v-39c0-6.065-4.935-11-11-11h-39z"/><path fill="#78a1d1" d="M76.807 48.154v18.663c0 5.685-4.652 10.337-10.337 10.337H33.144c-5.685 0-10.337-4.652-10.337-10.337V33.491c0-5.685 4.652-10.337 10.337-10.337h33.663"/><path fill="#1f212b" d="M66.47 77.654H33.144c-5.976 0-10.837-4.861-10.837-10.837V33.49c0-5.976 4.861-10.837 10.837-10.837h33.663a.5.5 0 0 1 0 1H33.144c-5.424 0-9.837 4.413-9.837 9.837v33.326c0 5.424 4.413 9.837 9.837 9.837H66.47c5.424 0 9.837-4.413 9.837-9.837V48.154a.5.5 0 0 1 1 0v18.663c0 5.975-4.861 10.837-10.837 10.837z"/><path fill="#1f212b" d="M76.807 46.654a.5.5 0 0 1-.5-.5v-4a.5.5 0 0 1 1 0v4a.5.5 0 0 1-.5.5zm0-6a.5.5 0 0 1-.5-.5v-2a.5.5 0 0 1 1 0v2a.5.5 0 0 1-.5.5z"/><path fill="#fdfcee" d="M64.807 53.974v10.179h-6l-.083-10.092c0-2.556-1.163-4.372-3.456-4.372-1.751 0-2.788 1.172-3.248 2.309-.165.404-.213.973-.213 1.542v10.613H45.73s.082-17.219 0-19h6.077v2.933l-.041.067h.041v-.067c.845-1.41 2.387-3.053 5.752-3.053 4.168-.007 7.248 2.591 7.248 8.941zM38.825 36.195c-1.877 0-3.101 1.287-3.101 2.979 0 1.654 1.188 2.979 3.03 2.979h.036c1.913 0 3.101-1.325 3.101-2.979-.042-1.691-1.195-2.979-3.066-2.979zm-3.018 27.959h6v-19h-6v19z"/><path fill="#1f212b" d="M64.807 64.654h-6a.5.5 0 0 1-.5-.496l-.083-10.092c0-1.168-.288-3.876-2.956-3.876-1.784 0-2.541 1.396-2.784 1.997-.117.287-.176.743-.176 1.354v10.613a.5.5 0 0 1-.5.5H45.73a.499.499 0 0 1-.5-.502c.001-.172.081-17.226 0-18.975a.497.497 0 0 1 .5-.523h6.077a.5.5 0 0 1 .5.5v1.43c1.288-1.381 3.071-2.038 5.271-2.05 2.188 0 3.968.668 5.288 1.986 1.62 1.617 2.441 4.125 2.441 7.456v10.179a.5.5 0 0 1-.5.499zm-5.504-1h5.004v-9.679c0-3.055-.723-5.325-2.148-6.748-1.125-1.124-2.667-1.693-4.582-1.693h-.017c-3.215 0-4.561 1.557-5.292 2.756-.075.199-.253.364-.461.364a.536.536 0 0 1-.457-.255.514.514 0 0 1-.043-.441v-2.304h-5.064c.053 3.027.001 15.303-.011 18h5.075V53.54c0-.753.082-1.319.25-1.731.663-1.64 2.051-2.62 3.71-2.62 2.44 0 3.956 1.867 3.956 4.873l.08 9.592zm-17.496 1h-6a.5.5 0 0 1-.5-.5v-19a.5.5 0 0 1 .5-.5h6a.5.5 0 0 1 .5.5v19a.5.5 0 0 1-.5.5zm-5.5-1h5v-18h-5v18zm2.482-21c-2.081 0-3.565-1.463-3.565-3.479s1.515-3.479 3.602-3.479c2.048 0 3.515 1.426 3.565 3.467 0 2.028-1.515 3.491-3.602 3.491zm.036-5.959c-1.532 0-2.602 1.02-2.602 2.479s1.041 2.479 2.53 2.479c1.567 0 2.637-1.02 2.637-2.479-.037-1.501-1.044-2.479-2.565-2.479z"/></svg>