<svg xmlns="http://www.w3.org/2000/svg" width="100" height="100"><path fill="#78a1d1" d="M89 26s-4.774 1.394-9.157 1.491c-.075-.191-.136-.388-.218-.576C85.019 23.428 86.5 19 86.5 19s-5.276 2.871-10.191 2.989C73.312 18.915 69.132 17 64.5 17 55.387 17 48 24.387 48 33.5c0 1.514.221 2.973.603 4.365C25.768 36.375 14.75 22.141 13.193 20 11.798 22.421 11 25.505 11 28.5c0 6.163 3.662 11.981 9 14.5-6 0-9-2-9-2 0 8.502 6.627 15.486 15 16-1.882.668-3.889 1-6 1-.907 0-2.213-.074-3.084-.203L17 58c2.669 6.311 9.747 10.797 17 11-5.571 4.98-13.44 8-21.5 8H11c6 4 14.111 6 22.5 6C59.734 83 81 61.734 81 35.5c0 0-.026-2.441-.035-2.662C86 30 89 26 89 26z"/><path fill="#1f212b" d="M33.5 84c-8.901 0-17.088-2.19-23.055-6.168A.999.999 0 0 1 11 76h1.5c6.9 0 13.688-2.247 18.981-6.227-6.783-1.044-12.906-5.48-15.402-11.384l-.087-.211a1.002 1.002 0 0 1 1.071-1.371c.853.127 2.123.193 2.937.193.362 0 .721-.011 1.077-.031C14.587 54.55 10 48.272 10 41a1 1 0 0 1 1.554-.832c.018.011 1.556.992 4.572 1.513C12.357 38.497 10 33.597 10 28.5c0-3.153.848-6.434 2.327-9a1 1 0 0 1 1.675-.089c1.897 2.608 12.269 15.475 33.317 17.352A17.138 17.138 0 0 1 47 33.5C47 23.851 54.851 16 64.5 16c4.6 0 8.917 1.762 12.206 4.972 4.49-.256 9.268-2.824 9.316-2.85a1 1 0 0 1 1.426 1.195c-.057.169-1.277 3.702-5.326 7.015 3.434-.379 6.56-1.281 6.598-1.292a1 1 0 0 1 1.081 1.56c-.123.164-2.98 3.932-7.825 6.809.012.8.025 2.081.025 2.081C82 62.243 60.243 84 33.5 84zm-18.895-6.065C19.861 80.572 26.434 82 33.5 82 59.141 82 80 61.141 80 35.5c0 0-.025-2.404-.034-2.623a1.001 1.001 0 0 1 .508-.911c2.363-1.332 4.271-2.943 5.601-4.237-1.757.356-4.018.712-6.209.761h-.022c-.41 0-.78-.251-.931-.634l-.097-.261c-.034-.094-.067-.189-.107-.281a1.002 1.002 0 0 1 .374-1.24c2.518-1.627 4.136-3.479 5.125-4.923-2.062.829-5.004 1.768-7.874 1.836-.313.024-.546-.102-.74-.301C72.646 19.665 68.706 18 64.5 18 55.953 18 49 24.953 49 33.5c0 1.348.191 2.728.567 4.101.085.312.015.646-.189.896-.205.25-.525.382-.84.366-20.368-1.33-31.542-12.596-35.164-17.002C12.492 23.877 12 26.222 12 28.5c0 5.753 3.386 11.217 8.427 13.596A1.001 1.001 0 0 1 20 44c-3.725 0-6.363-.743-7.911-1.359.783 7.179 6.639 12.911 13.972 13.361a1 1 0 0 1 .273 1.94C24.357 58.645 22.226 59 20 59c-.395 0-.899-.014-1.425-.044C21.45 64.167 27.587 67.82 34.028 68a.999.999 0 0 1 .639 1.745c-5.366 4.797-12.582 7.724-20.062 8.19z"/><path fill="#1f212b" d="M52.569 35a.5.5 0 0 1-.497-.457l-.021-.218A8.865 8.865 0 0 1 52 33.5a.5.5 0 0 1 1 0c0 .241.024.486.048.73l.021.226a.5.5 0 0 1-.454.542c-.015.002-.031.002-.046.002zM52.681 32a.501.501 0 0 1-.494-.584c.185-1.086.509-2.138.965-3.126a.501.501 0 0 1 .908.419 11.398 11.398 0 0 0-.887 2.874.5.5 0 0 1-.492.417zM55.581 26a.5.5 0 0 1-.372-.834A12.517 12.517 0 0 1 64.5 21a12.45 12.45 0 0 1 8.335 3.212.5.5 0 1 1-.67.743A11.448 11.448 0 0 0 64.5 22a11.512 11.512 0 0 0-8.547 3.834.499.499 0 0 1-.372.166zM33.5 79c-.205 0-.407-.008-.609-.016l-.401-.014a.5.5 0 0 1-.49-.51c.006-.276.236-.474.51-.49l.42.014c.189.008.378.016.57.016a.5.5 0 0 1 0 1zM47.5 76.647a.5.5 0 0 1-.163-.973c10.88-3.758 19.9-11.917 24.746-22.385a.5.5 0 1 1 .908.42c-4.96 10.714-14.192 19.063-25.328 22.91a.466.466 0 0 1-.163.028zM36.5 78.884a.5.5 0 0 1-.035-.999 42.611 42.611 0 0 0 4.942-.634.5.5 0 1 1 .186.982 43.47 43.47 0 0 1-5.058.649c-.012.002-.024.002-.035.002z"/></svg>